<svg width="22" height="22" viewBox="0 0 22 22" fill="none" xmlns="http://www.w3.org/2000/svg">
<path d="M7 11C7 11.2844 6.89333 11.5333 6.68 11.7467C6.50222 11.9244 6.27111 12.0133 5.98667 12.0133C5.70222 12.0133 5.47111 11.9244 5.29333 11.7467C5.11556 11.5333 5.02667 11.2844 5.02667 11C5.02667 10.7156 5.11556 10.4844 5.29333 10.3067C5.47111 10.0933 5.70222 9.98667 5.98667 9.98667C6.27111 9.98667 6.50222 10.0933 6.68 10.3067C6.89333 10.4844 7 10.7156 7 11ZM12.0133 11C12.0133 11.2844 11.9067 11.5333 11.6933 11.7467C11.5156 11.9244 11.2844 12.0133 11 12.0133C10.7156 12.0133 10.4667 11.9244 10.2533 11.7467C10.0756 11.5333 9.98667 11.2844 9.98667 11C9.98667 10.7156 10.0756 10.4844 10.2533 10.3067C10.4667 10.0933 10.7156 9.98667 11 9.98667C11.2844 9.98667 11.5156 10.0933 11.6933 10.3067C11.9067 10.4844 12.0133 10.7156 12.0133 11ZM17.0267 11C17.0267 11.2844 16.92 11.5333 16.7067 11.7467C16.5289 11.9244 16.2978 12.0133 16.0133 12.0133C15.7289 12.0133 15.48 11.9244 15.2667 11.7467C15.0889 11.5333 15 11.2844 15 11C15 10.7156 15.0889 10.4844 15.2667 10.3067C15.48 10.0933 15.7289 9.98667 16.0133 9.98667C16.2978 9.98667 16.5289 10.0933 16.7067 10.3067C16.92 10.4844 17.0267 10.7156 17.0267 11Z" fill="#CCCCCC"/>
</svg>
